HIERARCHY
ROOT joint_Root
{
	OFFSET 0.0 0.0 0.0
	CHANNELS 6 Xposition Yposition Zposition Zrotation Xrotation Yrotation 
	JOINT Hips
	{
		OFFSET 4.5925 91.4895 -427.239
		CHANNELS 6 Xposition Yposition Zposition Zrotation Xrotation Yrotation 
		JOINT Spine
		{
			OFFSET 15.7357 0.0 0.0
			CHANNELS 6 Xposition Yposition Zposition Zrotation Xrotation Yrotation 
			JOINT Chest
			{
				OFFSET 8.98455 -0.406207 0.0
				CHANNELS 6 Xposition Yposition Zposition Zrotation Xrotation Yrotation 
				JOINT Neck
				{
					OFFSET 16.3773 0.0 0.0
					CHANNELS 6 Xposition Yposition Zposition Zrotation Xrotation Yrotation 
					JOINT Head
					{
						OFFSET 6.45672 0.0 0.0
						CHANNELS 6 Xposition Yposition Zposition Zrotation Xrotation Yrotation 
						End Site
						{
							OFFSET 0.0 0.0 0.0
						}
					}
				}
				JOINT Shoulder_L
				{
					OFFSET 12.9942 -0.242716 4.98039
					CHANNELS 6 Xposition Yposition Zposition Zrotation Xrotation Yrotation 
					JOINT UpperArm_L
					{
						OFFSET 5.34809 0.0 0.0
						CHANNELS 6 Xposition Yposition Zposition Zrotation Xrotation Yrotation 
						JOINT LowerArm_L
						{
							OFFSET 24.3286 1.87007e-05 0.0
							CHANNELS 6 Xposition Yposition Zposition Zrotation Xrotation Yrotation 
							JOINT Hand_L
							{
								OFFSET 22.2916 0.0 0.0
								CHANNELS 6 Xposition Yposition Zposition Zrotation Xrotation Yrotation 
								End Site
								{
									OFFSET 0.0 0.0 0.0
								}
							}
						}
					}
				}
				JOINT Shoulder_R
				{
					OFFSET 12.9945 -0.242716 -4.98039
					CHANNELS 6 Xposition Yposition Zposition Zrotation Xrotation Yrotation 
					JOINT UpperArm_R
					{
						OFFSET -5.34813 0.0 0.0
						CHANNELS 6 Xposition Yposition Zposition Zrotation Xrotation Yrotation 
						JOINT LowerArm_R
						{
							OFFSET -24.3289 0.000322201 0.0
							CHANNELS 6 Xposition Yposition Zposition Zrotation Xrotation Yrotation 
							JOINT Hand_R
							{
								OFFSET -22.2915 -0.000108084 0.0
								CHANNELS 6 Xposition Yposition Zposition Zrotation Xrotation Yrotation 
								End Site
								{
									OFFSET 0.0 0.0 0.0
								}
							}
						}
					}
				}
			}
		}
		JOINT UpperLeg_L
		{
			OFFSET -2.19248 -6.46944 0.0
			CHANNELS 6 Xposition Yposition Zposition Zrotation Xrotation Yrotation 
			JOINT LowerLeg_L
			{
				OFFSET 39.0811 0.0 -1.23785e-05
				CHANNELS 6 Xposition Yposition Zposition Zrotation Xrotation Yrotation 
				JOINT Foot_L
				{
					OFFSET 40.9854 0.0 -1.26872e-05
					CHANNELS 6 Xposition Yposition Zposition Zrotation Xrotation Yrotation 
					JOINT Toes_L
					{
						OFFSET 11.7543 0.0 0.0
						CHANNELS 6 Xposition Yposition Zposition Zrotation Xrotation Yrotation 
						End Site
						{
							OFFSET 0.0 0.0 0.0
						}
					}
				}
			}
		}
		JOINT UpperLeg_R
		{
			OFFSET -2.19251 6.46944 0.0
			CHANNELS 6 Xposition Yposition Zposition Zrotation Xrotation Yrotation 
			JOINT LowerLeg_R
			{
				OFFSET -39.0811 -0.00228153 -0.0401928
				CHANNELS 6 Xposition Yposition Zposition Zrotation Xrotation Yrotation 
				JOINT Foot_R
				{
					OFFSET -40.9854 0.0 0.0
					CHANNELS 6 Xposition Yposition Zposition Zrotation Xrotation Yrotation 
					JOINT Toes_R
					{
						OFFSET -11.7543 0.0 0.0
						CHANNELS 6 Xposition Yposition Zposition Zrotation Xrotation Yrotation 
						End Site
						{
							OFFSET 0.0 0.0 0.0
						}
					}
				}
			}
		}
	}
}
MOTION
Frames:	9
Frame Time:	0.0333333
0.000000 0.000000 0.000000 0.000000 0.000000 -0.000000 4.799890 91.247400 1.090960 87.237600 -18.218200 3.377880 15.735700 0.000005 -0.000001 75.301500 85.824900 -72.105000 8.984550 -0.406207 -0.000000 0.384475 -2.323790 6.397160 16.377300 -0.000001 -0.000001 3.538210 1.468110 -4.367620 6.456720 -0.000001 -0.000000 -2.129620 2.230370 -0.494496 12.994200 -0.242716 4.980390 -82.545700 -14.682400 -62.696300 5.348090 -0.000007 -0.000001 -32.985600 -72.026600 -73.232700 24.328600 0.000019 0.000005 3.268370 2.942520 -48.046400 22.291600 -0.000001 0.000005 20.614700 5.450290 -4.649870 12.994500 -0.242716 -4.980390 88.130000 6.920630 -74.838900 -5.348130 -0.000001 -0.000004 -61.255700 20.146100 2.586660 -24.328900 0.000322 -0.000009 0.607636 1.245020 -26.057400 -22.291500 -0.000108 -0.000004 17.990300 5.418820 -3.559420 -2.192480 -6.469440 -0.000000 -178.053000 -18.637500 -2.843600 39.081100 -0.000007 -0.000012 -0.127951 0.244012 27.671100 40.985400 -0.000006 -0.000013 1.343410 -4.681930 -71.412300 11.754300 -0.000000 0.000003 -0.000157 -0.001510 -16.634900 -2.192510 6.469440 -0.000001 174.619000 18.965300 174.465000 -39.081100 -0.002282 -0.040193 -0.009984 0.027023 26.193800 -40.985400 0.000008 0.000006 5.202940 26.423000 -67.978400 -11.754300 -0.000006 -0.000006 -0.002142 -0.030479 -17.812500
0.000000 0.000000 0.000000 0.000000 0.000000 -0.000000 4.759530 91.228600 1.197100 87.245100 -18.057000 3.462920 15.735700 0.000005 -0.000001 75.540100 85.823300 -72.384700 8.984550 -0.406207 -0.000000 0.394182 -2.288010 6.315040 16.377300 -0.000001 -0.000001 3.596980 1.473420 -4.326260 6.456720 -0.000001 -0.000000 -2.055000 2.266150 -0.561512 12.994200 -0.242716 4.980390 -82.602000 -14.509700 -62.604900 5.348090 -0.000007 -0.000001 -33.645300 -71.972500 -74.120600 24.328600 0.000019 0.000005 2.760310 2.480170 -48.090600 22.291600 -0.000001 0.000005 20.665200 5.449330 -4.615550 12.994500 -0.242716 -4.980390 88.141400 6.913170 -74.911700 -5.348130 -0.000001 -0.000004 -60.957200 19.887600 2.386540 -24.328900 0.000322 -0.000009 0.592470 1.231210 -25.739900 -22.291500 -0.000108 -0.000004 18.030300 5.414140 -3.402740 -2.192480 -6.469440 -0.000000 -178.017000 -18.477500 -2.709790 39.081100 -0.000007 -0.000012 -0.128687 0.244954 27.715300 40.985400 -0.000006 -0.000013 1.313590 -4.674840 -71.501200 11.754300 -0.000000 0.000003 -0.000158 -0.001516 -16.635100 -2.192510 6.469440 -0.000001 174.544000 19.093400 174.621000 -39.081100 -0.002282 -0.040193 -0.010208 0.027369 26.285000 -40.985400 0.000008 0.000006 5.247190 26.389300 -68.121100 -11.754300 -0.000006 -0.000006 -0.002202 -0.031217 -17.842500
0.000000 0.000000 0.000000 0.000000 0.000000 -0.000000 4.715450 91.221100 1.296080 87.305000 -17.880100 3.562330 15.735700 0.000005 -0.000001 75.828900 85.839000 -72.746300 8.984550 -0.406207 -0.000000 0.371048 -2.235530 6.168780 16.377300 -0.000001 -0.000001 3.667350 1.468880 -4.259090 6.456720 -0.000001 -0.000000 -1.894800 2.266040 -0.535416 12.994200 -0.242716 4.980390 -82.694200 -14.266200 -62.513800 5.348090 -0.000007 -0.000001 -33.793300 -71.703300 -74.594000 24.328600 0.000019 0.000005 2.131000 1.904800 -48.226200 22.291600 -0.000001 0.000005 20.593400 5.452620 -4.733410 12.994500 -0.242716 -4.980390 88.130600 6.927870 -74.858500 -5.348130 -0.000001 -0.000004 -60.657600 19.769900 2.027230 -24.328900 0.000322 -0.000009 0.567851 1.206030 -25.256700 -22.291500 -0.000108 -0.000004 18.088900 5.409340 -3.243360 -2.192480 -6.469440 -0.000000 -178.024000 -18.355600 -2.532690 39.081100 -0.000007 -0.000012 -0.128664 0.245450 27.663500 40.985400 -0.000006 -0.000013 1.297550 -4.625430 -71.537800 11.754300 -0.000000 0.000003 -0.000170 -0.001617 -16.638800 -2.192510 6.469440 -0.000001 174.432000 19.113200 174.788000 -39.081100 -0.002282 -0.040193 -0.011187 0.029273 26.344700 -40.985400 0.000008 0.000006 5.182190 26.283300 -68.183700 -11.754300 -0.000006 -0.000006 -0.002114 -0.030132 -17.798400
0.000000 0.000000 0.000000 0.000000 0.000000 -0.000000 4.647340 91.210100 1.390030 87.401300 -17.634900 3.635410 15.735700 0.000005 -0.000001 75.651100 85.857100 -72.666200 8.984550 -0.406207 -0.000000 0.327472 -2.246430 5.972590 16.377300 -0.000001 -0.000001 3.734240 1.452390 -4.220980 6.456720 -0.000001 -0.000000 -1.712390 2.303740 -0.500141 12.994200 -0.242716 4.980390 -82.819500 -13.996300 -62.485200 5.348090 -0.000007 -0.000001 -33.385700 -71.313900 -74.139200 24.328600 0.000019 0.000005 1.894340 1.649850 -48.962300 22.291600 -0.000001 0.000005 20.278200 5.449460 -4.620930 12.994500 -0.242716 -4.980390 88.111800 6.976730 -74.815000 -5.348130 -0.000001 -0.000004 -60.474000 19.565500 1.622250 -24.328900 0.000322 -0.000009 0.460088 0.999679 -24.766000 -22.291500 -0.000108 -0.000004 18.295700 5.408410 -3.212680 -2.192480 -6.469440 -0.000000 -178.032000 -18.293700 -2.389780 39.081100 -0.000007 -0.000012 -0.128766 0.246092 27.620600 40.985400 -0.000006 -0.000013 1.301720 -4.414300 -71.577400 11.754300 -0.000000 0.000003 -0.000180 -0.001692 -16.641600 -2.192510 6.469440 -0.000001 174.320000 19.174600 174.869000 -39.081100 -0.002282 -0.040193 -0.011186 0.029074 26.498800 -40.985400 0.000008 0.000006 5.182480 26.091800 -68.287200 -11.754300 -0.000006 -0.000006 -0.002250 -0.031804 -17.866400
0.000000 0.000000 0.000000 0.000000 0.000000 -0.000000 4.555730 91.223200 1.460410 87.518300 -17.237900 3.651180 15.735700 0.000005 -0.000001 75.251200 85.877500 -72.369200 8.984550 -0.406207 -0.000000 0.271930 -2.286740 5.766080 16.377300 -0.000001 -0.000001 3.703640 1.434740 -4.209290 6.456720 -0.000001 -0.000000 -1.581880 2.365720 -0.618434 12.994200 -0.242716 4.980390 -83.088600 -13.514400 -62.584100 5.348090 -0.000007 -0.000001 -33.210100 -70.675200 -73.482000 24.328600 0.000019 0.000005 1.406710 1.166150 -50.352300 22.291600 -0.000001 0.000005 19.879300 5.452370 -4.724910 12.994500 -0.242716 -4.980390 88.083300 7.019420 -74.685600 -5.348130 -0.000001 -0.000004 -60.443700 19.188600 1.272330 -24.328900 0.000322 -0.000009 0.365770 0.806526 -24.458600 -22.291500 -0.000108 -0.000004 18.466300 5.406250 -3.141740 -2.192480 -6.469440 -0.000000 -178.055000 -18.194200 -2.294800 39.081100 -0.000007 -0.000012 -0.128543 0.247246 27.470000 40.985400 -0.000006 -0.000013 1.323100 -4.099990 -71.524200 11.754300 -0.000000 0.000003 -0.000218 -0.001990 -16.652500 -2.192510 6.469440 -0.000001 174.235000 19.294200 174.959000 -39.081100 -0.002282 -0.040193 -0.010463 0.027580 26.534200 -40.985400 0.000008 0.000006 5.242740 25.822300 -68.380900 -11.754300 -0.000006 -0.000006 -0.002373 -0.033291 -17.926900
0.000000 0.000000 0.000000 0.000000 0.000000 -0.000000 4.435630 91.238000 1.508160 87.658100 -16.742700 3.694690 15.735700 0.000005 -0.000001 75.032100 85.872500 -72.258300 8.984550 -0.406207 -0.000000 0.271581 -2.312760 5.549910 16.377300 -0.000001 -0.000001 3.606540 1.417690 -4.157950 6.456720 -0.000001 -0.000000 -1.505260 2.452820 -0.817358 12.994200 -0.242716 4.980390 -83.534200 -12.739000 -62.799100 5.348090 -0.000007 -0.000001 -33.917600 -69.638000 -72.913100 24.328600 0.000019 0.000005 1.081220 0.811040 -53.139700 22.291600 -0.000001 0.000005 19.288900 5.450330 -4.651430 12.994500 -0.242716 -4.980390 88.039000 7.123890 -74.565500 -5.348130 -0.000001 -0.000004 -60.524100 18.790200 1.137760 -24.328900 0.000322 -0.000009 0.206351 0.455720 -24.472900 -22.291500 -0.000108 -0.000004 18.713500 5.406840 -3.161060 -2.192480 -6.469440 -0.000000 -178.060000 -18.152100 -2.183120 39.081100 -0.000007 -0.000012 -0.121496 0.235252 27.314400 40.985400 -0.000006 -0.000013 1.371990 -3.621710 -71.454400 11.754300 -0.000000 0.000003 -0.000213 -0.001953 -16.651100 -2.192510 6.469440 -0.000001 174.113000 19.594100 175.132000 -39.081100 -0.002282 -0.040193 -0.010182 0.027046 26.510000 -40.985400 0.000008 0.000006 5.305110 25.598900 -68.524500 -11.754300 -0.000006 -0.000006 -0.002265 -0.031981 -17.873600
0.000000 0.000000 0.000000 0.000000 0.000000 -0.000000 4.280840 91.258600 1.516850 87.789500 -16.062700 3.771050 15.735700 0.000005 -0.000001 75.343000 85.835600 -72.699400 8.984550 -0.406207 -0.000000 0.350373 -2.277760 5.291210 16.377300 -0.000001 -0.000001 3.430900 1.334120 -4.049550 6.456720 -0.000001 -0.000000 -1.511010 2.467780 -0.824138 12.994200 -0.242716 4.980390 -84.025100 -11.944800 -63.175100 5.348090 -0.000007 -0.000001 -34.723700 -67.921900 -71.155200 24.328600 0.000019 0.000005 1.039900 0.649878 -57.988900 22.291600 -0.000001 0.000005 19.180100 5.442580 -4.376320 12.994500 -0.242716 -4.980390 87.968900 7.294010 -74.393000 -5.348130 -0.000001 -0.000004 -60.684200 18.738700 0.997771 -24.328900 0.000322 -0.000009 -0.075064 -0.163383 -24.366700 -22.291500 -0.000108 -0.000004 18.843800 5.410760 -3.290450 -2.192480 -6.469440 -0.000000 -177.984000 -18.134600 -2.083750 39.081100 -0.000007 -0.000012 -0.119711 0.233032 27.190100 40.985400 -0.000006 -0.000013 1.432320 -2.967120 -71.354400 11.754300 -0.000000 0.000003 -0.000209 -0.001922 -16.650000 -2.192510 6.469440 -0.000001 174.001000 20.110000 175.399000 -39.081100 -0.002282 -0.040193 -0.010067 0.026934 26.410300 -40.985400 0.000008 0.000006 5.403020 25.425900 -68.702900 -11.754300 -0.000006 -0.000006 -0.002194 -0.031120 -17.838600
0.000000 0.000000 0.000000 0.000000 0.000000 -0.000000 4.085770 91.282900 1.484990 87.881300 -15.229900 3.846820 15.735700 0.000005 -0.000001 75.785000 85.785800 -73.257300 8.984550 -0.406207 -0.000000 0.459233 -2.230110 5.061300 16.377300 -0.000001 -0.000001 3.225860 1.203660 -3.887360 6.456720 -0.000001 -0.000000 -1.576010 2.364650 -0.853194 12.994200 -0.242716 4.980390 -84.602200 -11.049500 -63.756600 5.348090 -0.000007 -0.000001 -34.674600 -65.370400 -67.378000 24.328600 0.000019 0.000005 1.412660 0.674726 -64.462800 22.291600 -0.000001 0.000005 19.260100 5.433010 -4.043060 12.994500 -0.242716 -4.980390 87.887200 7.502120 -74.221400 -5.348130 -0.000001 -0.000004 -60.928500 18.929100 0.917026 -24.328900 0.000322 -0.000009 -0.197210 -0.436539 -24.195500 -22.291500 -0.000108 -0.000004 18.855100 5.410870 -3.294210 -2.192480 -6.469440 -0.000000 -177.829000 -18.047000 -2.018280 39.081100 -0.000007 -0.000012 -0.118605 0.231691 27.108500 40.985400 -0.000006 -0.000013 1.502310 -2.165760 -71.245400 11.754300 -0.000000 0.000003 -0.000205 -0.001893 -16.648900 -2.192510 6.469440 -0.000001 173.949000 20.687000 175.722000 -39.081100 -0.002282 -0.040193 -0.011028 0.029087 26.239600 -40.985400 0.000008 0.000006 5.364130 25.156200 -68.801400 -11.754300 -0.000006 -0.000006 -0.001967 -0.028301 -17.723900
0.000000 0.000000 0.000000 0.000000 0.000000 -0.000000 3.860960 91.309500 1.407870 88.002500 -14.283900 3.931890 15.735700 0.000005 -0.000001 76.362600 85.709600 -73.954000 8.984550 -0.406207 -0.000000 0.623710 -2.172480 4.825800 16.377300 -0.000001 -0.000001 2.877110 1.010870 -3.531190 6.456720 -0.000001 -0.000000 -1.539160 2.197630 -1.091910 12.994200 -0.242716 4.980390 -85.325700 -9.895450 -64.556400 5.348090 -0.000007 -0.000001 -33.673500 -61.867600 -61.857700 24.328600 0.000019 0.000005 1.722190 0.564842 -71.840800 22.291600 -0.000001 0.000005 19.365100 5.423600 -3.720620 12.994500 -0.242716 -4.980390 87.824700 7.674270 -74.121900 -5.348130 -0.000001 -0.000004 -61.307900 19.388300 0.732696 -24.328900 0.000322 -0.000009 -0.293849 -0.666035 -23.731800 -22.291500 -0.000108 -0.000004 18.923300 5.410850 -3.293490 -2.192480 -6.469440 -0.000000 -177.682000 -17.925000 -2.018660 39.081100 -0.000007 -0.000012 -0.116452 0.228024 27.053500 40.985400 -0.000006 -0.000013 1.576870 -1.279780 -71.095200 11.754300 -0.000000 0.000003 -0.000222 -0.002023 -16.653600 -2.192510 6.469440 -0.000001 173.877000 21.277500 176.001000 -39.081100 -0.002282 -0.040193 -0.020396 0.048310 26.136700 -40.985400 0.000008 0.000006 5.273800 24.847600 -68.827100 -11.754300 -0.000006 -0.000006 -0.001918 -0.027685 -17.698800
